# xmcd
#
# Track frame offsets: 
#        150
#        61410
#        94773
#        119120
#        143055
#
# Disc length: 2653 seconds
#
# Revision: 18
# Processed by: cddbd v1.5.2PL0 Copyright (c) Steve Scherf et al.
# Submitted via: ExactAudioCopyFreeDBPlugin 1.0
#
DISCID=460a5b05
DTITLE=Pink Floyd - Wish You Were Here (SBM Columbia CK64405 MasterSou
DTITLE=nd Gold Edition)
DYEAR=1975
DGENRE=Psychedelic Rock
TTITLE0=Shine On You Crazy Diamond {Part 1-5}
TTITLE1=Welcome To The Machine
TTITLE2=Have A Cigar
TTITLE3=Wish You Were Here
TTITLE4=Shine On You Crazy Diamond {Part 6-9}
EXTD=
EXTT0=
EXTT1=
EXTT2=
EXTT3=
EXTT4=
PLAYORDER=
